/* XPM */
static char * image_name[]={
"32 32 59 2",
"  	c #E3E3E3",
". 	c #E8E8E8",
"X 	c #E5E5E5",
"o 	c #DEDEDE",
"O 	c #C9C9C9",
"+ 	c #A6A6A6",
"@ 	c #D1D1D1",
"# 	c #D6D6D6",
"$ 	c #CFCFCF",
"% 	c #C4C4C4",
"& 	c #616161",
"* 	c #C2C2C2",
"= 	c #BDBDBD",
"- 	c #B0B0B0",
"; 	c #A8A8A8",
": 	c #9E9E9E",
"> 	c #636363",
", 	c #303030",
"< 	c #B3B3B3",
"1 	c #A1A1A1",
"2 	c #999999",
"3 	c #9B7071",
"4 	c #B7644D",
"5 	c #A52A2A",
"6 	c #D11619",
"7 	c #7A7A7A",
"8 	c #424242",
"9 	c #262626",
"0 	c #8F8F8F",
"q 	c #969696",
"w 	c #8C8C8C",
"e 	c #2F2F64",
"r 	c #FFFF00",
"t 	c #0000FF",
"y 	c #4955A5",
"u 	c #3232CC",
"i 	c #5773B8",
"p 	c #4169E1",
"a 	c #413ACC",
"s 	c #423ADF",
"d 	c #482CCE",
"f 	c #4139DF",
"g 	c #949494",
"h 	c #BD52BD",
"j 	c #453DDC",
"k 	c #735694",
"l 	c #A22E61",
"z 	c #4039E0",
"x 	c #443DDD",
"c 	c #919191",
"v 	c #B5B5B5",
"b 	c #6A6A8D",
"n 	c #666666",
"m 	c #3B3B3B",
"M 	c #6E6E6E",
"N 	c #4A4A4A",
"B 	c #222298",
"V 	c #2E2E2E",
"C 	c #5C5C5C",
"  . X                                                     o O + ",
"@ # @ $ $ $ $ $ $ $ $ $ $ $ $ $ $ $ $ $ $ $ $ $ $ $ $ $ $ % + & ",
"* = - ; ; ; ; ; ; ; ; ; ; ; ; ; ; ; ; ; ; ; ; ; ; ; ; ; ; : > , ",
"= < 1 2 2 2 2 2 2 3 4 5 6 6 6 5 4 3 2 2 2 2 2 2 2 2 2 2 2 7 8 9 ",
"= < 1 2 2 2 2 3 5 5 4 3 0 q 0 3 4 5 5 3 2 2 2 2 2 2 2 2 2 7 8 9 ",
"= < 1 2 2 2 4 5 4 q 2 2 2 2 2 2 2 q 4 5 4 2 2 2 2 2 2 2 2 7 8 9 ",
"= < 1 2 2 4 5 w 2 2 2 2 2 2 2 2 2 2 2 w 5 4 2 2 2 2 2 2 2 7 8 9 ",
"= < 1 2 3 5 w 2 2 2 2 2 2 2 2 2 2 2 2 2 w 5 3 2 2 2 2 2 2 7 8 9 ",
"= < 1 2 5 4 2 2 2 2 2 2 2 2 2 2 2 2 2 2 2 4 5 2 2 2 2 2 2 7 8 9 ",
"= < 1 3 5 q 2 2 2 2 2 2 2 2 2 2 2 2 2 2 2 q 5 3 2 2 2 2 2 7 8 e ",
"= < 1 4 4 2 2 2 2 2 2 2 2 r 2 2 2 2 2 2 2 2 4 4 2 2 2 2 2 7 e t ",
"= < 1 5 3 2 2 2 2 2 2 2 2 r 2 2 2 2 2 2 2 2 3 5 2 2 2 2 q y u e ",
"= < 1 6 0 2 2 2 2 2 2 2 2 r 2 2 2 2 2 2 2 2 0 6 2 2 q i p a e 9 ",
"= < 1 6 q 2 2 2 2 2 r r r r r r r 2 2 2 2 2 q 6 i p u s i 7 8 9 ",
"= < 1 6 0 2 2 2 2 2 2 2 2 r 2 2 2 2 2 2 i p d 5 f p g 2 2 7 8 9 ",
"= < 1 5 3 2 2 2 2 2 2 2 2 r 2 2 2 2 g u u p h 5 2 2 2 2 2 7 8 9 ",
"= < 1 4 4 2 2 2 2 2 2 2 2 r 2 2 q h f p p 2 4 4 2 2 2 2 2 7 8 9 ",
"= < 1 3 5 q 2 2 2 2 2 2 2 2 2 2 p u f 0 2 q 5 3 2 2 2 2 2 7 8 9 ",
"= < 1 2 5 4 2 2 2 2 2 2 2 2 2 2 p p 2 2 2 4 5 2 2 2 2 2 2 7 8 9 ",
"= < 1 2 3 5 w 2 2 2 2 2 2 2 2 2 u g 2 2 w 5 3 2 2 2 2 2 2 7 8 9 ",
"= < 1 2 2 4 5 w 2 2 2 2 2 2 2 g u 2 2 w 5 4 2 2 2 2 2 2 2 7 8 9 ",
"= < 1 2 2 2 4 5 4 q 2 2 2 2 2 i j q 4 5 4 2 2 2 2 2 2 2 2 7 8 9 ",
"= < 1 2 2 2 2 3 5 5 4 3 0 q 0 k l 5 5 3 2 2 2 2 2 2 2 2 2 7 8 9 ",
"= < 1 2 2 2 2 2 2 3 4 5 6 6 6 5 l 3 2 2 2 2 2 2 2 2 2 2 2 7 8 9 ",
"= < 1 2 2 2 2 2 2 2 2 2 2 2 2 z i 2 2 2 2 2 2 2 2 2 2 2 2 7 8 9 ",
"= < 1 2 2 2 2 2 2 2 2 2 2 2 q t q 2 2 2 2 2 2 2 2 2 2 2 2 7 8 9 ",
"= < 1 2 2 2 2 2 2 2 2 2 2 2 i x 2 2 2 2 2 2 2 2 2 2 2 2 2 7 8 9 ",
"= < 1 2 2 2 2 2 2 2 2 2 2 2 j i 2 2 2 2 2 2 2 2 2 2 2 2 2 7 8 9 ",
"= < 1 2 2 2 2 2 2 2 2 2 2 c u q 2 2 2 2 2 2 2 2 2 2 2 2 2 7 8 9 ",
"v + 0 7 7 7 7 7 7 7 7 7 b u y 7 7 7 7 7 7 7 7 7 7 7 7 7 7 n m 9 ",
": M N 8 8 8 8 8 8 8 8 8 B B 8 8 8 8 8 8 8 8 8 8 8 8 8 8 8 m V 9 ",
"C , 9 9 9 9 9 9 9 9 9 B u 9 9 9 9 9 9 9 9 9 9 9 9 9 9 9 9 9 9 9 "
};
